<mxfile host="Electron" modified="2023-10-19T16:02:46.613Z" agent="Mozilla/5.0 (X11; Linux x86_64) AppleWebKit/537.36 (KHTML, like Gecko) draw.io/21.2.8 Chrome/112.0.5615.165 Electron/24.2.0 Safari/537.36" etag="0fdxXwKhkGGXWnOmHo5l" version="21.2.8" type="device">
  <diagram id="LlQNECq1KfZueN_K7BSQ" name="Page-1">
    <mxGraphModel dx="1491" dy="1151" grid="1" gridSize="10" guides="1" tooltips="1" connect="1" arrows="1" fold="1" page="1" pageScale="1" pageWidth="1169" pageHeight="827" math="0" shadow="0">
      <root>
        <mxCell id="0" />
        <mxCell id="1" style="locked=1;" parent="0" visible="0" />
        <mxCell id="6Vxnt5PZRypZ1aIo4u6j-15" value="" style="rounded=1;whiteSpace=wrap;html=1;fontSize=26;shadow=1;glass=0;gradientColor=none;gradientDirection=north;fillColor=#002538;verticalAlign=top;fontStyle=1;strokeColor=none;" parent="1" vertex="1">
          <mxGeometry x="270" y="40" width="630" height="624" as="geometry" />
        </mxCell>
        <object label="VIP Traffic Flow" id="6Vxnt5PZRypZ1aIo4u6j-18">
          <mxCell style="" parent="0" />
        </object>
        <mxCell id="na72bfkku3NZ-06XnOkD-2" style="edgeStyle=orthogonalEdgeStyle;rounded=0;orthogonalLoop=1;jettySize=auto;html=1;exitX=0.5;exitY=0;exitDx=0;exitDy=0;entryX=0.5;entryY=0;entryDx=0;entryDy=0;" edge="1" parent="6Vxnt5PZRypZ1aIo4u6j-18" source="6Vxnt5PZRypZ1aIo4u6j-39" target="na72bfkku3NZ-06XnOkD-1">
          <mxGeometry relative="1" as="geometry">
            <Array as="points">
              <mxPoint x="182" y="354.65" />
              <mxPoint x="617" y="354.65" />
            </Array>
          </mxGeometry>
        </mxCell>
        <mxCell id="na72bfkku3NZ-06XnOkD-4" value="&lt;b&gt;VIP on 10/8 on&lt;br&gt;&amp;nbsp; Softlayer network&amp;nbsp;&lt;br&gt;&lt;/b&gt;" style="edgeLabel;html=1;align=center;verticalAlign=middle;resizable=0;points=[];labelBorderColor=none;fontSize=14;labelBackgroundColor=#005285;" vertex="1" connectable="0" parent="na72bfkku3NZ-06XnOkD-2">
          <mxGeometry x="-0.3607" y="-3" relative="1" as="geometry">
            <mxPoint x="128" y="-3" as="offset" />
          </mxGeometry>
        </mxCell>
        <mxCell id="na72bfkku3NZ-06XnOkD-17" value="&lt;b style=&quot;font-size: 14px;&quot;&gt;2 TOR Interfaces&lt;br&gt;per load balancer&lt;br&gt;&amp;nbsp;(Bonded 172.31/16 BGP)&amp;nbsp;&lt;br&gt;&lt;/b&gt;" style="edgeLabel;html=1;align=center;verticalAlign=middle;resizable=0;points=[];labelBackgroundColor=#005285;" vertex="1" connectable="0" parent="na72bfkku3NZ-06XnOkD-2">
          <mxGeometry x="0.8403" relative="1" as="geometry">
            <mxPoint y="10" as="offset" />
          </mxGeometry>
        </mxCell>
        <mxCell id="na72bfkku3NZ-06XnOkD-3" style="edgeStyle=orthogonalEdgeStyle;rounded=0;orthogonalLoop=1;jettySize=auto;html=1;exitX=0.5;exitY=1;exitDx=0;exitDy=0;entryX=0.5;entryY=1;entryDx=0;entryDy=0;strokeWidth=1;" edge="1" parent="6Vxnt5PZRypZ1aIo4u6j-18" source="6Vxnt5PZRypZ1aIo4u6j-39" target="na72bfkku3NZ-06XnOkD-1">
          <mxGeometry relative="1" as="geometry">
            <mxPoint x="181.625" y="563.65" as="sourcePoint" />
            <mxPoint x="617" y="588.65" as="targetPoint" />
            <Array as="points">
              <mxPoint x="182" y="634.65" />
              <mxPoint x="617" y="634.65" />
            </Array>
          </mxGeometry>
        </mxCell>
        <mxCell id="na72bfkku3NZ-06XnOkD-7" value="&lt;b&gt;VIP on 192.168/8&lt;br&gt;&amp;nbsp;(Only accessible &lt;br&gt;&amp;nbsp;within&amp;nbsp;its datacenter&amp;nbsp;&lt;/b&gt;" style="edgeLabel;html=1;align=center;verticalAlign=middle;resizable=0;points=[];fontSize=14;labelBorderColor=default;spacingTop=0;spacingBottom=0;labelBackgroundColor=#005285;" vertex="1" connectable="0" parent="na72bfkku3NZ-06XnOkD-3">
          <mxGeometry x="-0.5793" relative="1" as="geometry">
            <mxPoint x="191" y="-1" as="offset" />
          </mxGeometry>
        </mxCell>
        <mxCell id="na72bfkku3NZ-06XnOkD-18" value="Text" style="edgeLabel;html=1;align=center;verticalAlign=middle;resizable=0;points=[];" vertex="1" connectable="0" parent="na72bfkku3NZ-06XnOkD-3">
          <mxGeometry x="0.7864" y="4" relative="1" as="geometry">
            <mxPoint as="offset" />
          </mxGeometry>
        </mxCell>
        <mxCell id="na72bfkku3NZ-06XnOkD-19" value="&lt;b style=&quot;font-size: 14px;&quot;&gt;&amp;nbsp;MAGG Interface&amp;nbsp;&lt;br&gt;192.168/8&lt;br&gt;&amp;nbsp;per load balancer&amp;nbsp;&lt;br&gt;&lt;/b&gt;" style="edgeLabel;html=1;align=center;verticalAlign=middle;resizable=0;points=[];labelBackgroundColor=#005285;" vertex="1" connectable="0" parent="na72bfkku3NZ-06XnOkD-3">
          <mxGeometry x="0.9034" relative="1" as="geometry">
            <mxPoint as="offset" />
          </mxGeometry>
        </mxCell>
        <mxCell id="6Vxnt5PZRypZ1aIo4u6j-39" value="&lt;span&gt;Vault Clients&lt;/span&gt;" style="rounded=1;whiteSpace=wrap;html=1;shadow=1;glass=0;labelBackgroundColor=none;sketch=1;fontSize=20;strokeColor=#002538;fillColor=#006699;gradientColor=none;gradientDirection=north;labelPosition=center;verticalLabelPosition=middle;align=center;verticalAlign=middle;fontStyle=1" parent="6Vxnt5PZRypZ1aIo4u6j-18" vertex="1">
          <mxGeometry x="105" y="453.65" width="153.25" height="70" as="geometry" />
        </mxCell>
        <mxCell id="JUy_ZC_qTbQyK6g66qeD-11" value="&lt;span style=&quot;font-size: 28px;&quot;&gt;&lt;b&gt;OperatorVault&lt;br&gt;Citrix MPX Load Balancer&lt;br&gt;Network Implementation&lt;br&gt;&lt;/b&gt;&lt;/span&gt;" style="text;html=1;resizable=0;autosize=1;align=center;verticalAlign=middle;points=[];fillColor=#002538;strokeColor=none;rounded=0;labelBackgroundColor=#002538;spacing=6;spacingBottom=11;spacingTop=5;" parent="6Vxnt5PZRypZ1aIo4u6j-18" vertex="1">
          <mxGeometry x="410" y="40" width="370" height="130" as="geometry" />
        </mxCell>
        <mxCell id="na72bfkku3NZ-06XnOkD-9" style="edgeStyle=orthogonalEdgeStyle;rounded=0;orthogonalLoop=1;jettySize=auto;html=1;exitX=1;exitY=0.5;exitDx=0;exitDy=0;entryX=0;entryY=0.5;entryDx=0;entryDy=0;" edge="1" parent="6Vxnt5PZRypZ1aIo4u6j-18" source="na72bfkku3NZ-06XnOkD-1" target="mOykNFZixdm5JmPJaIbM-5">
          <mxGeometry relative="1" as="geometry" />
        </mxCell>
        <mxCell id="na72bfkku3NZ-06XnOkD-10" value="&lt;font style=&quot;font-size: 14px;&quot;&gt;&lt;b&gt;Vault servers&lt;br&gt;&lt;/b&gt;&lt;b&gt;&amp;nbsp;BGP (TOR) Interface)&amp;nbsp;&lt;br&gt;&lt;/b&gt;&lt;/font&gt;" style="edgeLabel;html=1;align=center;verticalAlign=middle;resizable=0;points=[];labelBackgroundColor=#005285;" vertex="1" connectable="0" parent="na72bfkku3NZ-06XnOkD-9">
          <mxGeometry x="-0.1686" relative="1" as="geometry">
            <mxPoint as="offset" />
          </mxGeometry>
        </mxCell>
        <mxCell id="na72bfkku3NZ-06XnOkD-1" value="" style="image;aspect=fixed;perimeter=ellipsePerimeter;html=1;align=center;shadow=0;dashed=0;fontColor=#4277BB;labelBackgroundColor=default;fontSize=12;spacingTop=3;image=img/lib/ibm/infrastructure/load_balancing_routing.svg;" vertex="1" parent="6Vxnt5PZRypZ1aIo4u6j-18">
          <mxGeometry x="557" y="428.65" width="120" height="120" as="geometry" />
        </mxCell>
        <mxCell id="mOykNFZixdm5JmPJaIbM-5" value="MZR&lt;br&gt;Vault Servers" style="rounded=1;whiteSpace=wrap;html=1;shadow=1;glass=0;labelBackgroundColor=none;sketch=0;fontSize=20;strokeColor=#002538;fillColor=#002538;gradientColor=#006699;gradientDirection=south;verticalAlign=top;fontStyle=1" parent="6Vxnt5PZRypZ1aIo4u6j-18" vertex="1">
          <mxGeometry x="865" y="260" width="200" height="457.29999999999995" as="geometry" />
        </mxCell>
        <mxCell id="na72bfkku3NZ-06XnOkD-16" value="" style="group" vertex="1" connectable="0" parent="6Vxnt5PZRypZ1aIo4u6j-18">
          <mxGeometry x="895" y="334.65" width="146.82534883720928" height="330.82133615275586" as="geometry" />
        </mxCell>
        <mxCell id="mOykNFZixdm5JmPJaIbM-8" value="" style="shape=image;verticalLabelPosition=bottom;verticalAlign=top;imageAspect=0;aspect=fixed;image=data:image/png,iVBORw0KGgoAAAANSUhEUgAAAIAAAACACAYAAADDPmHLAAAAAXNSR0IArs4c6QAACRlJREFUeAHtXWePFWUUXhTBgjExGo2JfjBREViaSlPD4ib2FjWxJIINe+/6QS76B0yMX/xkooLYUYoVCSL2BgiC4tpFJBp7TAR8nnWGjHdn3mlvnXtOcnZm5y3nnOc955k7c8sM6urqehnaCxXpLATWI9wRO+DPPZ0Vt0QbIdDCdsug6J9XsD0m2pdN8xFYhxBHQLeSASjCAv/h0Cl/Wwh0K4ONGYD7S6DTuCPSaAQ+QXQjof0JEDMAIxYWIArNlxZC7F98hppkAP7/KrSHOyKNRGAtohoF3Z4ASQZgxMICRKG50kJo2xefYbYzAI8thU7ljkijEBhQ/YyunQF4rMU/Io1DoIWI/lf9jDCNAXj8NehR3BFpBAJrEEU3dEACpDEAI76Lf0Qag0ALkQxYfEaXxQBsWw49kjsiQSPwMbwfDU1NgCwGYMTCAkQhfGkhhNTFZ2gqBmD769Ap3BEJEoHV8JrVvy3LexUDcIywQBZyYRxvwc3MxWcIeQzAPiugk7kjEhQCudXPaPIYgH2EBYhCeDILLiurnyEVYQD2ewM6iTsiQSCwCl6OgeYmQBEGYMTCAkQhHClU/QynKAOw75vQidwR8RqBlfBuLDS3+hlFUQZgX2EBouC/FK5+hlKGAdj/LegE7oh4icBH8GoctFD1V4nguGhyGhD1D4PTqixq2TFvy+J7mfwfYl3KMnr5ATByPHQx1BfZBEceUDgzE237RO2/YHufou90tB0Qtf+M7f2KvjPQtr+i3XbT6TA435bRd2DIl1MAz3sqYWXEvvapOqJtWaLvhpy+fLc0ntf19gP4Urr6GV+ZqwD2j6WpVwSVQIxBcbidBdtMwtJSNQF4Cni3tDUZYAIBVv+zVSeumgC0x6xrmoTIALXWoU4CLMLqv9ewDAgtAd4H/s/VWYM6CUC7tbKvjuOGxoaWALXxH1wTyIUYzywcX3OeOsMZw96KCZIxcoGHKvomC4Lj4kvCtCGqedL66z5G9l2ge9Iq852MQdtErWNwUpXFMjWGLCBJYA8D767ATpEEsFoAJ+qqZF0vejgPz0l8J8q2bIbBOQqj56Ftr6j9V2wfjPbTNmfh4H5Rw2/Y8konS3rREM+b1cfEcd6F9fId2VPhmIvTgKlbwfwhBZUsR6OLeE9QOVW2Lfmqt+zY9v68Hs1bjPYxvv2vixFNxcXq1/pGnM4EYDXMMhW5g3l9TAbt78HoTACuEe9Jh8wCyUVP7jvIvwEm+TmM5wccrXlAdwKQBVo1fXI5PLnoyX2XPsW2jbCr7gSgs/OhK2OvA9v6tugxfPwspvbq5+QmEsA2CzCGYQqtGqNPyWCk+pkApoLkvHwt0E0jngkTNEva8fg7qyOOD4G291d0r9zE72ME+d3MM+A4wRath8GxlVPH8UBWxypJgFoFwO9kGhXTFHYmvH/CaARdXT9h/mcUNvhp2T2j9t+xfUzRl/fY943a/8J2rqJvD9oOVLTraGL1v6RjIldzMMFWQ02eBvLuO1T9VPDGHNCYHCbjWpFjX0tz1VfIRY0ToFbRzh70M82IZULUftcvzbjpBKDNJ6H8pSqR4giw+vkkF+NiIwHIArONR6LHgC8MYKX6CZmNBKAdssAa7nguPiQAf5mNT3CxIrYSYCuiCYEFfEgAa9XPDLOVALTFy8G13DEgO2LOLDVgrn9KE8nCD5ksMeWwD/OeDSdMXjrlzU0m+kOhWxL+sS8/bsZvCfPjYX9CeWs42SfPXtn2aZi/0ULGIQuUBaYT+i9r9MongjtHEiC1AJxUv4nzWGKtU3fJArwvMDy11exB0vgihYketLn4pC+rf6rCr8Y1nYuIXNB6Xw6SXAgXfvXk+GWsmdXoQubB6DoXhnNsumDEpfCJ6kRcJQBfYd/tJGL/jM72zyU7HvG6nSxgk3LzTgG2v+zh/JrfFQMwxXg97RsL2D4FdGz1MwEoZIH1UFsskMcAfBfOli/Oqx+xWr0VTHvt4iMLtPto6v+WqYnLzGub8tJ8Iwvw7uBBaY2aj/HFJ2/tZskeaBic1ajxOKu/V+N8wU91PiKwRb0+2Dk6+BXTHABZ4NMOSQIrn/TRvD5WppveIQkgj+TNSCeeez9reBIE/RHvjHXTenhGwxNAHsWbky5kgQ0NTYIXc2KX5giBC7D14ZW6bh+k+gumeBNZ4IWCsUu3CIELsdVdgS7nmyIrWw4BssDnDUkCI7/sUQ7OMHtf1JAEmBwm/O693gku9AWeBIvdwxi2BxcHngCTwobfvfchs4BUv6b8uSRQFpioKf6On4Ys8AXU5WVcWduq7x50/IJWAWBmYAkwoUqQMiYbAbLAl9Cyleii/8LsMKSlDgKXBpIAUv11VlkxdgjafGeBBQr/pUkDApdhDhe0XtTmERpilCkUCJAFvoIWXRCb/fjEFBELCFwOGzYXtqitwy3ELiaAAFnga2jRhbHRj09KEbGIwBWwZWNhi9o4zGLsYgoIDIX6wgJ8QoqIAwSuhM2iFWqy33gHsYtJIEAW+AZqcnHz5lb9TL0skgUErnKcAOMsxCgmFAiQBb6F5lWqiXapfsXC2Gy62kEC8GvmUv02V1lha2e02WaBpxX+SJMDBK6BTRM0nzYnq3+sgxjFpAIBssB30LQF033sKYUf0uQQgWstJACrf4zDGMW0AgEbLMAnn4h4jMB18E035cfzsfpHexy7uAYEdoF+D40XTefW9AMwZQE1IXC9gQRg9Xdr8k+mMYwAWWAjVGf1P27YZ5leMwI3aEwAqX7Ni2NjOp0soHrYtI1YxEZFBG7EuLqnAVb/qIr2ZZhjBHaF/R+gdZJgnuMYxHxNBG6qkQCs/pE17ctwxwjUYQGpfseLp8v8zZio7GmAzzEYocsBmcctArvB/CZomSR41K3LYl03AreUSACpft3oezBfGRaY64G/4oIBBG7FnHmnAVb/oQZsy5QeIEAW+BGqSoI5HvgpLhhE4DZFArD6hxu0LVN7gMAw+JDFAo944J+4YAGB22Gj/TQg1W8BeF9MkAU2tyXBw744J37YQeCORAL8g/1D7JgVK74gsDsciVngIV+cEj/sInAnzLH6D7ZrVqz5ggBZ4F5fnBE/3CDgw8Oz3UQeWf0XizdmlqzKA30AAAAASUVORK5CYII=;fontSize=16;imageBackground=#006699;imageBorder=#002538;sketch=0;container=0;" parent="na72bfkku3NZ-06XnOkD-16" vertex="1">
          <mxGeometry width="86.82170542635653" height="86.82170542635653" as="geometry" />
        </mxCell>
        <mxCell id="mOykNFZixdm5JmPJaIbM-9" value="" style="shape=image;verticalLabelPosition=bottom;verticalAlign=top;imageAspect=0;aspect=fixed;image=data:image/png,iVBORw0KGgoAAAANSUhEUgAAAIAAAACACAYAAADDPmHLAAAAAXNSR0IArs4c6QAACRlJREFUeAHtXWePFWUUXhTBgjExGo2JfjBREViaSlPD4ib2FjWxJIINe+/6QS76B0yMX/xkooLYUYoVCSL2BgiC4tpFJBp7TAR8nnWGjHdn3mlvnXtOcnZm5y3nnOc955k7c8sM6urqehnaCxXpLATWI9wRO+DPPZ0Vt0QbIdDCdsug6J9XsD0m2pdN8xFYhxBHQLeSASjCAv/h0Cl/Wwh0K4ONGYD7S6DTuCPSaAQ+QXQjof0JEDMAIxYWIArNlxZC7F98hppkAP7/KrSHOyKNRGAtohoF3Z4ASQZgxMICRKG50kJo2xefYbYzAI8thU7ljkijEBhQ/YyunQF4rMU/Io1DoIWI/lf9jDCNAXj8NehR3BFpBAJrEEU3dEACpDEAI76Lf0Qag0ALkQxYfEaXxQBsWw49kjsiQSPwMbwfDU1NgCwGYMTCAkQhfGkhhNTFZ2gqBmD769Ap3BEJEoHV8JrVvy3LexUDcIywQBZyYRxvwc3MxWcIeQzAPiugk7kjEhQCudXPaPIYgH2EBYhCeDILLiurnyEVYQD2ewM6iTsiQSCwCl6OgeYmQBEGYMTCAkQhHClU/QynKAOw75vQidwR8RqBlfBuLDS3+hlFUQZgX2EBouC/FK5+hlKGAdj/LegE7oh4icBH8GoctFD1V4nguGhyGhD1D4PTqixq2TFvy+J7mfwfYl3KMnr5ATByPHQx1BfZBEceUDgzE237RO2/YHufou90tB0Qtf+M7f2KvjPQtr+i3XbT6TA435bRd2DIl1MAz3sqYWXEvvapOqJtWaLvhpy+fLc0ntf19gP4Urr6GV+ZqwD2j6WpVwSVQIxBcbidBdtMwtJSNQF4Cni3tDUZYAIBVv+zVSeumgC0x6xrmoTIALXWoU4CLMLqv9ewDAgtAd4H/s/VWYM6CUC7tbKvjuOGxoaWALXxH1wTyIUYzywcX3OeOsMZw96KCZIxcoGHKvomC4Lj4kvCtCGqedL66z5G9l2ge9Iq852MQdtErWNwUpXFMjWGLCBJYA8D767ATpEEsFoAJ+qqZF0vejgPz0l8J8q2bIbBOQqj56Ftr6j9V2wfjPbTNmfh4H5Rw2/Y8konS3rREM+b1cfEcd6F9fId2VPhmIvTgKlbwfwhBZUsR6OLeE9QOVW2Lfmqt+zY9v68Hs1bjPYxvv2vixFNxcXq1/pGnM4EYDXMMhW5g3l9TAbt78HoTACuEe9Jh8wCyUVP7jvIvwEm+TmM5wccrXlAdwKQBVo1fXI5PLnoyX2XPsW2jbCr7gSgs/OhK2OvA9v6tugxfPwspvbq5+QmEsA2CzCGYQqtGqNPyWCk+pkApoLkvHwt0E0jngkTNEva8fg7qyOOD4G291d0r9zE72ME+d3MM+A4wRath8GxlVPH8UBWxypJgFoFwO9kGhXTFHYmvH/CaARdXT9h/mcUNvhp2T2j9t+xfUzRl/fY943a/8J2rqJvD9oOVLTraGL1v6RjIldzMMFWQ02eBvLuO1T9VPDGHNCYHCbjWpFjX0tz1VfIRY0ToFbRzh70M82IZULUftcvzbjpBKDNJ6H8pSqR4giw+vkkF+NiIwHIArONR6LHgC8MYKX6CZmNBKAdssAa7nguPiQAf5mNT3CxIrYSYCuiCYEFfEgAa9XPDLOVALTFy8G13DEgO2LOLDVgrn9KE8nCD5ksMeWwD/OeDSdMXjrlzU0m+kOhWxL+sS8/bsZvCfPjYX9CeWs42SfPXtn2aZi/0ULGIQuUBaYT+i9r9MongjtHEiC1AJxUv4nzWGKtU3fJArwvMDy11exB0vgihYketLn4pC+rf6rCr8Y1nYuIXNB6Xw6SXAgXfvXk+GWsmdXoQubB6DoXhnNsumDEpfCJ6kRcJQBfYd/tJGL/jM72zyU7HvG6nSxgk3LzTgG2v+zh/JrfFQMwxXg97RsL2D4FdGz1MwEoZIH1UFsskMcAfBfOli/Oqx+xWr0VTHvt4iMLtPto6v+WqYnLzGub8tJ8Iwvw7uBBaY2aj/HFJ2/tZskeaBic1ajxOKu/V+N8wU91PiKwRb0+2Dk6+BXTHABZ4NMOSQIrn/TRvD5WppveIQkgj+TNSCeeez9reBIE/RHvjHXTenhGwxNAHsWbky5kgQ0NTYIXc2KX5giBC7D14ZW6bh+k+gumeBNZ4IWCsUu3CIELsdVdgS7nmyIrWw4BssDnDUkCI7/sUQ7OMHtf1JAEmBwm/O693gku9AWeBIvdwxi2BxcHngCTwobfvfchs4BUv6b8uSRQFpioKf6On4Ys8AXU5WVcWduq7x50/IJWAWBmYAkwoUqQMiYbAbLAl9Cyleii/8LsMKSlDgKXBpIAUv11VlkxdgjafGeBBQr/pUkDApdhDhe0XtTmERpilCkUCJAFvoIWXRCb/fjEFBELCFwOGzYXtqitwy3ELiaAAFnga2jRhbHRj09KEbGIwBWwZWNhi9o4zGLsYgoIDIX6wgJ8QoqIAwSuhM2iFWqy33gHsYtJIEAW+AZqcnHz5lb9TL0skgUErnKcAOMsxCgmFAiQBb6F5lWqiXapfsXC2Gy62kEC8GvmUv02V1lha2e02WaBpxX+SJMDBK6BTRM0nzYnq3+sgxjFpAIBssB30LQF033sKYUf0uQQgWstJACrf4zDGMW0AgEbLMAnn4h4jMB18E035cfzsfpHexy7uAYEdoF+D40XTefW9AMwZQE1IXC9gQRg9Xdr8k+mMYwAWWAjVGf1P27YZ5leMwI3aEwAqX7Ni2NjOp0soHrYtI1YxEZFBG7EuLqnAVb/qIr2ZZhjBHaF/R+gdZJgnuMYxHxNBG6qkQCs/pE17ctwxwjUYQGpfseLp8v8zZio7GmAzzEYocsBmcctArvB/CZomSR41K3LYl03AreUSACpft3oezBfGRaY64G/4oIBBG7FnHmnAVb/oQZsy5QeIEAW+BGqSoI5HvgpLhhE4DZFArD6hxu0LVN7gMAw+JDFAo944J+4YAGB22Gj/TQg1W8BeF9MkAU2tyXBw744J37YQeCORAL8g/1D7JgVK74gsDsciVngIV+cEj/sInAnzLH6D7ZrVqz5ggBZ4F5fnBE/3CDgw8Oz3UQeWf0XizdmlqzKA30AAAAASUVORK5CYII=;fontSize=16;imageBackground=#006699;imageBorder=#002538;sketch=0;container=0;" parent="na72bfkku3NZ-06XnOkD-16" vertex="1">
          <mxGeometry x="13.178294573643484" y="49.9999461311578" width="86.82170542635653" height="86.82170542635653" as="geometry" />
        </mxCell>
        <mxCell id="mOykNFZixdm5JmPJaIbM-10" value="" style="shape=image;verticalLabelPosition=bottom;verticalAlign=top;imageAspect=0;aspect=fixed;image=data:image/png,iVBORw0KGgoAAAANSUhEUgAAAIAAAACACAYAAADDPmHLAAAAAXNSR0IArs4c6QAACRlJREFUeAHtXWePFWUUXhTBgjExGo2JfjBREViaSlPD4ib2FjWxJIINe+/6QS76B0yMX/xkooLYUYoVCSL2BgiC4tpFJBp7TAR8nnWGjHdn3mlvnXtOcnZm5y3nnOc955k7c8sM6urqehnaCxXpLATWI9wRO+DPPZ0Vt0QbIdDCdsug6J9XsD0m2pdN8xFYhxBHQLeSASjCAv/h0Cl/Wwh0K4ONGYD7S6DTuCPSaAQ+QXQjof0JEDMAIxYWIArNlxZC7F98hppkAP7/KrSHOyKNRGAtohoF3Z4ASQZgxMICRKG50kJo2xefYbYzAI8thU7ljkijEBhQ/YyunQF4rMU/Io1DoIWI/lf9jDCNAXj8NehR3BFpBAJrEEU3dEACpDEAI76Lf0Qag0ALkQxYfEaXxQBsWw49kjsiQSPwMbwfDU1NgCwGYMTCAkQhfGkhhNTFZ2gqBmD769Ap3BEJEoHV8JrVvy3LexUDcIywQBZyYRxvwc3MxWcIeQzAPiugk7kjEhQCudXPaPIYgH2EBYhCeDILLiurnyEVYQD2ewM6iTsiQSCwCl6OgeYmQBEGYMTCAkQhHClU/QynKAOw75vQidwR8RqBlfBuLDS3+hlFUQZgX2EBouC/FK5+hlKGAdj/LegE7oh4icBH8GoctFD1V4nguGhyGhD1D4PTqixq2TFvy+J7mfwfYl3KMnr5ATByPHQx1BfZBEceUDgzE237RO2/YHufou90tB0Qtf+M7f2KvjPQtr+i3XbT6TA435bRd2DIl1MAz3sqYWXEvvapOqJtWaLvhpy+fLc0ntf19gP4Urr6GV+ZqwD2j6WpVwSVQIxBcbidBdtMwtJSNQF4Cni3tDUZYAIBVv+zVSeumgC0x6xrmoTIALXWoU4CLMLqv9ewDAgtAd4H/s/VWYM6CUC7tbKvjuOGxoaWALXxH1wTyIUYzywcX3OeOsMZw96KCZIxcoGHKvomC4Lj4kvCtCGqedL66z5G9l2ge9Iq852MQdtErWNwUpXFMjWGLCBJYA8D767ATpEEsFoAJ+qqZF0vejgPz0l8J8q2bIbBOQqj56Ftr6j9V2wfjPbTNmfh4H5Rw2/Y8konS3rREM+b1cfEcd6F9fId2VPhmIvTgKlbwfwhBZUsR6OLeE9QOVW2Lfmqt+zY9v68Hs1bjPYxvv2vixFNxcXq1/pGnM4EYDXMMhW5g3l9TAbt78HoTACuEe9Jh8wCyUVP7jvIvwEm+TmM5wccrXlAdwKQBVo1fXI5PLnoyX2XPsW2jbCr7gSgs/OhK2OvA9v6tugxfPwspvbq5+QmEsA2CzCGYQqtGqNPyWCk+pkApoLkvHwt0E0jngkTNEva8fg7qyOOD4G291d0r9zE72ME+d3MM+A4wRath8GxlVPH8UBWxypJgFoFwO9kGhXTFHYmvH/CaARdXT9h/mcUNvhp2T2j9t+xfUzRl/fY943a/8J2rqJvD9oOVLTraGL1v6RjIldzMMFWQ02eBvLuO1T9VPDGHNCYHCbjWpFjX0tz1VfIRY0ToFbRzh70M82IZULUftcvzbjpBKDNJ6H8pSqR4giw+vkkF+NiIwHIArONR6LHgC8MYKX6CZmNBKAdssAa7nguPiQAf5mNT3CxIrYSYCuiCYEFfEgAa9XPDLOVALTFy8G13DEgO2LOLDVgrn9KE8nCD5ksMeWwD/OeDSdMXjrlzU0m+kOhWxL+sS8/bsZvCfPjYX9CeWs42SfPXtn2aZi/0ULGIQuUBaYT+i9r9MongjtHEiC1AJxUv4nzWGKtU3fJArwvMDy11exB0vgihYketLn4pC+rf6rCr8Y1nYuIXNB6Xw6SXAgXfvXk+GWsmdXoQubB6DoXhnNsumDEpfCJ6kRcJQBfYd/tJGL/jM72zyU7HvG6nSxgk3LzTgG2v+zh/JrfFQMwxXg97RsL2D4FdGz1MwEoZIH1UFsskMcAfBfOli/Oqx+xWr0VTHvt4iMLtPto6v+WqYnLzGub8tJ8Iwvw7uBBaY2aj/HFJ2/tZskeaBic1ajxOKu/V+N8wU91PiKwRb0+2Dk6+BXTHABZ4NMOSQIrn/TRvD5WppveIQkgj+TNSCeeez9reBIE/RHvjHXTenhGwxNAHsWbky5kgQ0NTYIXc2KX5giBC7D14ZW6bh+k+gumeBNZ4IWCsUu3CIELsdVdgS7nmyIrWw4BssDnDUkCI7/sUQ7OMHtf1JAEmBwm/O693gku9AWeBIvdwxi2BxcHngCTwobfvfchs4BUv6b8uSRQFpioKf6On4Ys8AXU5WVcWduq7x50/IJWAWBmYAkwoUqQMiYbAbLAl9Cyleii/8LsMKSlDgKXBpIAUv11VlkxdgjafGeBBQr/pUkDApdhDhe0XtTmERpilCkUCJAFvoIWXRCb/fjEFBELCFwOGzYXtqitwy3ELiaAAFnga2jRhbHRj09KEbGIwBWwZWNhi9o4zGLsYgoIDIX6wgJ8QoqIAwSuhM2iFWqy33gHsYtJIEAW+AZqcnHz5lb9TL0skgUErnKcAOMsxCgmFAiQBb6F5lWqiXapfsXC2Gy62kEC8GvmUv02V1lha2e02WaBpxX+SJMDBK6BTRM0nzYnq3+sgxjFpAIBssB30LQF033sKYUf0uQQgWstJACrf4zDGMW0AgEbLMAnn4h4jMB18E035cfzsfpHexy7uAYEdoF+D40XTefW9AMwZQE1IXC9gQRg9Xdr8k+mMYwAWWAjVGf1P27YZ5leMwI3aEwAqX7Ni2NjOp0soHrYtI1YxEZFBG7EuLqnAVb/qIr2ZZhjBHaF/R+gdZJgnuMYxHxNBG6qkQCs/pE17ctwxwjUYQGpfseLp8v8zZio7GmAzzEYocsBmcctArvB/CZomSR41K3LYl03AreUSACpft3oezBfGRaY64G/4oIBBG7FnHmnAVb/oQZsy5QeIEAW+BGqSoI5HvgpLhhE4DZFArD6hxu0LVN7gMAw+JDFAo944J+4YAGB22Gj/TQg1W8BeF9MkAU2tyXBw744J37YQeCORAL8g/1D7JgVK74gsDsciVngIV+cEj/sInAnzLH6D7ZrVqz5ggBZ4F5fnBE/3CDgw8Oz3UQeWf0XizdmlqzKA30AAAAASUVORK5CYII=;fontSize=16;imageBackground=#006699;imageBorder=#002538;sketch=0;container=0;" parent="na72bfkku3NZ-06XnOkD-16" vertex="1">
          <mxGeometry x="26.35658914728674" y="96.67989226231566" width="86.82170542635653" height="86.82170542635653" as="geometry" />
        </mxCell>
        <mxCell id="mOykNFZixdm5JmPJaIbM-11" value="" style="shape=image;verticalLabelPosition=bottom;verticalAlign=top;imageAspect=0;aspect=fixed;image=data:image/png,iVBORw0KGgoAAAANSUhEUgAAAIAAAACACAYAAADDPmHLAAAAAXNSR0IArs4c6QAACRlJREFUeAHtXWePFWUUXhTBgjExGo2JfjBREViaSlPD4ib2FjWxJIINe+/6QS76B0yMX/xkooLYUYoVCSL2BgiC4tpFJBp7TAR8nnWGjHdn3mlvnXtOcnZm5y3nnOc955k7c8sM6urqehnaCxXpLATWI9wRO+DPPZ0Vt0QbIdDCdsug6J9XsD0m2pdN8xFYhxBHQLeSASjCAv/h0Cl/Wwh0K4ONGYD7S6DTuCPSaAQ+QXQjof0JEDMAIxYWIArNlxZC7F98hppkAP7/KrSHOyKNRGAtohoF3Z4ASQZgxMICRKG50kJo2xefYbYzAI8thU7ljkijEBhQ/YyunQF4rMU/Io1DoIWI/lf9jDCNAXj8NehR3BFpBAJrEEU3dEACpDEAI76Lf0Qag0ALkQxYfEaXxQBsWw49kjsiQSPwMbwfDU1NgCwGYMTCAkQhfGkhhNTFZ2gqBmD769Ap3BEJEoHV8JrVvy3LexUDcIywQBZyYRxvwc3MxWcIeQzAPiugk7kjEhQCudXPaPIYgH2EBYhCeDILLiurnyEVYQD2ewM6iTsiQSCwCl6OgeYmQBEGYMTCAkQhHClU/QynKAOw75vQidwR8RqBlfBuLDS3+hlFUQZgX2EBouC/FK5+hlKGAdj/LegE7oh4icBH8GoctFD1V4nguGhyGhD1D4PTqixq2TFvy+J7mfwfYl3KMnr5ATByPHQx1BfZBEceUDgzE237RO2/YHufou90tB0Qtf+M7f2KvjPQtr+i3XbT6TA435bRd2DIl1MAz3sqYWXEvvapOqJtWaLvhpy+fLc0ntf19gP4Urr6GV+ZqwD2j6WpVwSVQIxBcbidBdtMwtJSNQF4Cni3tDUZYAIBVv+zVSeumgC0x6xrmoTIALXWoU4CLMLqv9ewDAgtAd4H/s/VWYM6CUC7tbKvjuOGxoaWALXxH1wTyIUYzywcX3OeOsMZw96KCZIxcoGHKvomC4Lj4kvCtCGqedL66z5G9l2ge9Iq852MQdtErWNwUpXFMjWGLCBJYA8D767ATpEEsFoAJ+qqZF0vejgPz0l8J8q2bIbBOQqj56Ftr6j9V2wfjPbTNmfh4H5Rw2/Y8konS3rREM+b1cfEcd6F9fId2VPhmIvTgKlbwfwhBZUsR6OLeE9QOVW2Lfmqt+zY9v68Hs1bjPYxvv2vixFNxcXq1/pGnM4EYDXMMhW5g3l9TAbt78HoTACuEe9Jh8wCyUVP7jvIvwEm+TmM5wccrXlAdwKQBVo1fXI5PLnoyX2XPsW2jbCr7gSgs/OhK2OvA9v6tugxfPwspvbq5+QmEsA2CzCGYQqtGqNPyWCk+pkApoLkvHwt0E0jngkTNEva8fg7qyOOD4G291d0r9zE72ME+d3MM+A4wRath8GxlVPH8UBWxypJgFoFwO9kGhXTFHYmvH/CaARdXT9h/mcUNvhp2T2j9t+xfUzRl/fY943a/8J2rqJvD9oOVLTraGL1v6RjIldzMMFWQ02eBvLuO1T9VPDGHNCYHCbjWpFjX0tz1VfIRY0ToFbRzh70M82IZULUftcvzbjpBKDNJ6H8pSqR4giw+vkkF+NiIwHIArONR6LHgC8MYKX6CZmNBKAdssAa7nguPiQAf5mNT3CxIrYSYCuiCYEFfEgAa9XPDLOVALTFy8G13DEgO2LOLDVgrn9KE8nCD5ksMeWwD/OeDSdMXjrlzU0m+kOhWxL+sS8/bsZvCfPjYX9CeWs42SfPXtn2aZi/0ULGIQuUBaYT+i9r9MongjtHEiC1AJxUv4nzWGKtU3fJArwvMDy11exB0vgihYketLn4pC+rf6rCr8Y1nYuIXNB6Xw6SXAgXfvXk+GWsmdXoQubB6DoXhnNsumDEpfCJ6kRcJQBfYd/tJGL/jM72zyU7HvG6nSxgk3LzTgG2v+zh/JrfFQMwxXg97RsL2D4FdGz1MwEoZIH1UFsskMcAfBfOli/Oqx+xWr0VTHvt4iMLtPto6v+WqYnLzGub8tJ8Iwvw7uBBaY2aj/HFJ2/tZskeaBic1ajxOKu/V+N8wU91PiKwRb0+2Dk6+BXTHABZ4NMOSQIrn/TRvD5WppveIQkgj+TNSCeeez9reBIE/RHvjHXTenhGwxNAHsWbky5kgQ0NTYIXc2KX5giBC7D14ZW6bh+k+gumeBNZ4IWCsUu3CIELsdVdgS7nmyIrWw4BssDnDUkCI7/sUQ7OMHtf1JAEmBwm/O693gku9AWeBIvdwxi2BxcHngCTwobfvfchs4BUv6b8uSRQFpioKf6On4Ys8AXU5WVcWduq7x50/IJWAWBmYAkwoUqQMiYbAbLAl9Cyleii/8LsMKSlDgKXBpIAUv11VlkxdgjafGeBBQr/pUkDApdhDhe0XtTmERpilCkUCJAFvoIWXRCb/fjEFBELCFwOGzYXtqitwy3ELiaAAFnga2jRhbHRj09KEbGIwBWwZWNhi9o4zGLsYgoIDIX6wgJ8QoqIAwSuhM2iFWqy33gHsYtJIEAW+AZqcnHz5lb9TL0skgUErnKcAOMsxCgmFAiQBb6F5lWqiXapfsXC2Gy62kEC8GvmUv02V1lha2e02WaBpxX+SJMDBK6BTRM0nzYnq3+sgxjFpAIBssB30LQF033sKYUf0uQQgWstJACrf4zDGMW0AgEbLMAnn4h4jMB18E035cfzsfpHexy7uAYEdoF+D40XTefW9AMwZQE1IXC9gQRg9Xdr8k+mMYwAWWAjVGf1P27YZ5leMwI3aEwAqX7Ni2NjOp0soHrYtI1YxEZFBG7EuLqnAVb/qIr2ZZhjBHaF/R+gdZJgnuMYxHxNBG6qkQCs/pE17ctwxwjUYQGpfseLp8v8zZio7GmAzzEYocsBmcctArvB/CZomSR41K3LYl03AreUSACpft3oezBfGRaY64G/4oIBBG7FnHmnAVb/oQZsy5QeIEAW+BGqSoI5HvgpLhhE4DZFArD6hxu0LVN7gMAw+JDFAo944J+4YAGB22Gj/TQg1W8BeF9MkAU2tyXBw744J37YQeCORAL8g/1D7JgVK74gsDsciVngIV+cEj/sInAnzLH6D7ZrVqz5ggBZ4F5fnBE/3CDgw8Oz3UQeWf0XizdmlqzKA30AAAAASUVORK5CYII=;fontSize=16;imageBackground=#006699;imageBorder=#002538;sketch=0;container=0;" parent="na72bfkku3NZ-06XnOkD-16" vertex="1">
          <mxGeometry x="39.534883720930225" y="148.9998383934735" width="86.82170542635653" height="86.82170542635653" as="geometry" />
        </mxCell>
        <mxCell id="na72bfkku3NZ-06XnOkD-11" value="" style="shape=image;verticalLabelPosition=bottom;verticalAlign=top;imageAspect=0;aspect=fixed;image=data:image/png,iVBORw0KGgoAAAANSUhEUgAAAIAAAACACAYAAADDPmHLAAAAAXNSR0IArs4c6QAACRlJREFUeAHtXWePFWUUXhTBgjExGo2JfjBREViaSlPD4ib2FjWxJIINe+/6QS76B0yMX/xkooLYUYoVCSL2BgiC4tpFJBp7TAR8nnWGjHdn3mlvnXtOcnZm5y3nnOc955k7c8sM6urqehnaCxXpLATWI9wRO+DPPZ0Vt0QbIdDCdsug6J9XsD0m2pdN8xFYhxBHQLeSASjCAv/h0Cl/Wwh0K4ONGYD7S6DTuCPSaAQ+QXQjof0JEDMAIxYWIArNlxZC7F98hppkAP7/KrSHOyKNRGAtohoF3Z4ASQZgxMICRKG50kJo2xefYbYzAI8thU7ljkijEBhQ/YyunQF4rMU/Io1DoIWI/lf9jDCNAXj8NehR3BFpBAJrEEU3dEACpDEAI76Lf0Qag0ALkQxYfEaXxQBsWw49kjsiQSPwMbwfDU1NgCwGYMTCAkQhfGkhhNTFZ2gqBmD769Ap3BEJEoHV8JrVvy3LexUDcIywQBZyYRxvwc3MxWcIeQzAPiugk7kjEhQCudXPaPIYgH2EBYhCeDILLiurnyEVYQD2ewM6iTsiQSCwCl6OgeYmQBEGYMTCAkQhHClU/QynKAOw75vQidwR8RqBlfBuLDS3+hlFUQZgX2EBouC/FK5+hlKGAdj/LegE7oh4icBH8GoctFD1V4nguGhyGhD1D4PTqixq2TFvy+J7mfwfYl3KMnr5ATByPHQx1BfZBEceUDgzE237RO2/YHufou90tB0Qtf+M7f2KvjPQtr+i3XbT6TA435bRd2DIl1MAz3sqYWXEvvapOqJtWaLvhpy+fLc0ntf19gP4Urr6GV+ZqwD2j6WpVwSVQIxBcbidBdtMwtJSNQF4Cni3tDUZYAIBVv+zVSeumgC0x6xrmoTIALXWoU4CLMLqv9ewDAgtAd4H/s/VWYM6CUC7tbKvjuOGxoaWALXxH1wTyIUYzywcX3OeOsMZw96KCZIxcoGHKvomC4Lj4kvCtCGqedL66z5G9l2ge9Iq852MQdtErWNwUpXFMjWGLCBJYA8D767ATpEEsFoAJ+qqZF0vejgPz0l8J8q2bIbBOQqj56Ftr6j9V2wfjPbTNmfh4H5Rw2/Y8konS3rREM+b1cfEcd6F9fId2VPhmIvTgKlbwfwhBZUsR6OLeE9QOVW2Lfmqt+zY9v68Hs1bjPYxvv2vixFNxcXq1/pGnM4EYDXMMhW5g3l9TAbt78HoTACuEe9Jh8wCyUVP7jvIvwEm+TmM5wccrXlAdwKQBVo1fXI5PLnoyX2XPsW2jbCr7gSgs/OhK2OvA9v6tugxfPwspvbq5+QmEsA2CzCGYQqtGqNPyWCk+pkApoLkvHwt0E0jngkTNEva8fg7qyOOD4G291d0r9zE72ME+d3MM+A4wRath8GxlVPH8UBWxypJgFoFwO9kGhXTFHYmvH/CaARdXT9h/mcUNvhp2T2j9t+xfUzRl/fY943a/8J2rqJvD9oOVLTraGL1v6RjIldzMMFWQ02eBvLuO1T9VPDGHNCYHCbjWpFjX0tz1VfIRY0ToFbRzh70M82IZULUftcvzbjpBKDNJ6H8pSqR4giw+vkkF+NiIwHIArONR6LHgC8MYKX6CZmNBKAdssAa7nguPiQAf5mNT3CxIrYSYCuiCYEFfEgAa9XPDLOVALTFy8G13DEgO2LOLDVgrn9KE8nCD5ksMeWwD/OeDSdMXjrlzU0m+kOhWxL+sS8/bsZvCfPjYX9CeWs42SfPXtn2aZi/0ULGIQuUBaYT+i9r9MongjtHEiC1AJxUv4nzWGKtU3fJArwvMDy11exB0vgihYketLn4pC+rf6rCr8Y1nYuIXNB6Xw6SXAgXfvXk+GWsmdXoQubB6DoXhnNsumDEpfCJ6kRcJQBfYd/tJGL/jM72zyU7HvG6nSxgk3LzTgG2v+zh/JrfFQMwxXg97RsL2D4FdGz1MwEoZIH1UFsskMcAfBfOli/Oqx+xWr0VTHvt4iMLtPto6v+WqYnLzGub8tJ8Iwvw7uBBaY2aj/HFJ2/tZskeaBic1ajxOKu/V+N8wU91PiKwRb0+2Dk6+BXTHABZ4NMOSQIrn/TRvD5WppveIQkgj+TNSCeeez9reBIE/RHvjHXTenhGwxNAHsWbky5kgQ0NTYIXc2KX5giBC7D14ZW6bh+k+gumeBNZ4IWCsUu3CIELsdVdgS7nmyIrWw4BssDnDUkCI7/sUQ7OMHtf1JAEmBwm/O693gku9AWeBIvdwxi2BxcHngCTwobfvfchs4BUv6b8uSRQFpioKf6On4Ys8AXU5WVcWduq7x50/IJWAWBmYAkwoUqQMiYbAbLAl9Cyleii/8LsMKSlDgKXBpIAUv11VlkxdgjafGeBBQr/pUkDApdhDhe0XtTmERpilCkUCJAFvoIWXRCb/fjEFBELCFwOGzYXtqitwy3ELiaAAFnga2jRhbHRj09KEbGIwBWwZWNhi9o4zGLsYgoIDIX6wgJ8QoqIAwSuhM2iFWqy33gHsYtJIEAW+AZqcnHz5lb9TL0skgUErnKcAOMsxCgmFAiQBb6F5lWqiXapfsXC2Gy62kEC8GvmUv02V1lha2e02WaBpxX+SJMDBK6BTRM0nzYnq3+sgxjFpAIBssB30LQF033sKYUf0uQQgWstJACrf4zDGMW0AgEbLMAnn4h4jMB18E035cfzsfpHexy7uAYEdoF+D40XTefW9AMwZQE1IXC9gQRg9Xdr8k+mMYwAWWAjVGf1P27YZ5leMwI3aEwAqX7Ni2NjOp0soHrYtI1YxEZFBG7EuLqnAVb/qIr2ZZhjBHaF/R+gdZJgnuMYxHxNBG6qkQCs/pE17ctwxwjUYQGpfseLp8v8zZio7GmAzzEYocsBmcctArvB/CZomSR41K3LYl03AreUSACpft3oezBfGRaY64G/4oIBBG7FnHmnAVb/oQZsy5QeIEAW+BGqSoI5HvgpLhhE4DZFArD6hxu0LVN7gMAw+JDFAo944J+4YAGB22Gj/TQg1W8BeF9MkAU2tyXBw744J37YQeCORAL8g/1D7JgVK74gsDsciVngIV+cEj/sInAnzLH6D7ZrVqz5ggBZ4F5fnBE/3CDgw8Oz3UQeWf0XizdmlqzKA30AAAAASUVORK5CYII=;fontSize=16;imageBackground=#006699;imageBorder=#002538;sketch=0;container=0;" vertex="1" parent="na72bfkku3NZ-06XnOkD-16">
          <mxGeometry x="52.05426356589135" y="199.99973455993654" width="86.82170542635653" height="86.82170542635653" as="geometry" />
        </mxCell>
        <mxCell id="na72bfkku3NZ-06XnOkD-12" value="" style="shape=image;verticalLabelPosition=bottom;verticalAlign=top;imageAspect=0;aspect=fixed;image=data:image/png,iVBORw0KGgoAAAANSUhEUgAAAIAAAACACAYAAADDPmHLAAAAAXNSR0IArs4c6QAACRlJREFUeAHtXWePFWUUXhTBgjExGo2JfjBREViaSlPD4ib2FjWxJIINe+/6QS76B0yMX/xkooLYUYoVCSL2BgiC4tpFJBp7TAR8nnWGjHdn3mlvnXtOcnZm5y3nnOc955k7c8sM6urqehnaCxXpLATWI9wRO+DPPZ0Vt0QbIdDCdsug6J9XsD0m2pdN8xFYhxBHQLeSASjCAv/h0Cl/Wwh0K4ONGYD7S6DTuCPSaAQ+QXQjof0JEDMAIxYWIArNlxZC7F98hppkAP7/KrSHOyKNRGAtohoF3Z4ASQZgxMICRKG50kJo2xefYbYzAI8thU7ljkijEBhQ/YyunQF4rMU/Io1DoIWI/lf9jDCNAXj8NehR3BFpBAJrEEU3dEACpDEAI76Lf0Qag0ALkQxYfEaXxQBsWw49kjsiQSPwMbwfDU1NgCwGYMTCAkQhfGkhhNTFZ2gqBmD769Ap3BEJEoHV8JrVvy3LexUDcIywQBZyYRxvwc3MxWcIeQzAPiugk7kjEhQCudXPaPIYgH2EBYhCeDILLiurnyEVYQD2ewM6iTsiQSCwCl6OgeYmQBEGYMTCAkQhHClU/QynKAOw75vQidwR8RqBlfBuLDS3+hlFUQZgX2EBouC/FK5+hlKGAdj/LegE7oh4icBH8GoctFD1V4nguGhyGhD1D4PTqixq2TFvy+J7mfwfYl3KMnr5ATByPHQx1BfZBEceUDgzE237RO2/YHufou90tB0Qtf+M7f2KvjPQtr+i3XbT6TA435bRd2DIl1MAz3sqYWXEvvapOqJtWaLvhpy+fLc0ntf19gP4Urr6GV+ZqwD2j6WpVwSVQIxBcbidBdtMwtJSNQF4Cni3tDUZYAIBVv+zVSeumgC0x6xrmoTIALXWoU4CLMLqv9ewDAgtAd4H/s/VWYM6CUC7tbKvjuOGxoaWALXxH1wTyIUYzywcX3OeOsMZw96KCZIxcoGHKvomC4Lj4kvCtCGqedL66z5G9l2ge9Iq852MQdtErWNwUpXFMjWGLCBJYA8D767ATpEEsFoAJ+qqZF0vejgPz0l8J8q2bIbBOQqj56Ftr6j9V2wfjPbTNmfh4H5Rw2/Y8konS3rREM+b1cfEcd6F9fId2VPhmIvTgKlbwfwhBZUsR6OLeE9QOVW2Lfmqt+zY9v68Hs1bjPYxvv2vixFNxcXq1/pGnM4EYDXMMhW5g3l9TAbt78HoTACuEe9Jh8wCyUVP7jvIvwEm+TmM5wccrXlAdwKQBVo1fXI5PLnoyX2XPsW2jbCr7gSgs/OhK2OvA9v6tugxfPwspvbq5+QmEsA2CzCGYQqtGqNPyWCk+pkApoLkvHwt0E0jngkTNEva8fg7qyOOD4G291d0r9zE72ME+d3MM+A4wRath8GxlVPH8UBWxypJgFoFwO9kGhXTFHYmvH/CaARdXT9h/mcUNvhp2T2j9t+xfUzRl/fY943a/8J2rqJvD9oOVLTraGL1v6RjIldzMMFWQ02eBvLuO1T9VPDGHNCYHCbjWpFjX0tz1VfIRY0ToFbRzh70M82IZULUftcvzbjpBKDNJ6H8pSqR4giw+vkkF+NiIwHIArONR6LHgC8MYKX6CZmNBKAdssAa7nguPiQAf5mNT3CxIrYSYCuiCYEFfEgAa9XPDLOVALTFy8G13DEgO2LOLDVgrn9KE8nCD5ksMeWwD/OeDSdMXjrlzU0m+kOhWxL+sS8/bsZvCfPjYX9CeWs42SfPXtn2aZi/0ULGIQuUBaYT+i9r9MongjtHEiC1AJxUv4nzWGKtU3fJArwvMDy11exB0vgihYketLn4pC+rf6rCr8Y1nYuIXNB6Xw6SXAgXfvXk+GWsmdXoQubB6DoXhnNsumDEpfCJ6kRcJQBfYd/tJGL/jM72zyU7HvG6nSxgk3LzTgG2v+zh/JrfFQMwxXg97RsL2D4FdGz1MwEoZIH1UFsskMcAfBfOli/Oqx+xWr0VTHvt4iMLtPto6v+WqYnLzGub8tJ8Iwvw7uBBaY2aj/HFJ2/tZskeaBic1ajxOKu/V+N8wU91PiKwRb0+2Dk6+BXTHABZ4NMOSQIrn/TRvD5WppveIQkgj+TNSCeeez9reBIE/RHvjHXTenhGwxNAHsWbky5kgQ0NTYIXc2KX5giBC7D14ZW6bh+k+gumeBNZ4IWCsUu3CIELsdVdgS7nmyIrWw4BssDnDUkCI7/sUQ7OMHtf1JAEmBwm/O693gku9AWeBIvdwxi2BxcHngCTwobfvfchs4BUv6b8uSRQFpioKf6On4Ys8AXU5WVcWduq7x50/IJWAWBmYAkwoUqQMiYbAbLAl9Cyleii/8LsMKSlDgKXBpIAUv11VlkxdgjafGeBBQr/pUkDApdhDhe0XtTmERpilCkUCJAFvoIWXRCb/fjEFBELCFwOGzYXtqitwy3ELiaAAFnga2jRhbHRj09KEbGIwBWwZWNhi9o4zGLsYgoIDIX6wgJ8QoqIAwSuhM2iFWqy33gHsYtJIEAW+AZqcnHz5lb9TL0skgUErnKcAOMsxCgmFAiQBb6F5lWqiXapfsXC2Gy62kEC8GvmUv02V1lha2e02WaBpxX+SJMDBK6BTRM0nzYnq3+sgxjFpAIBssB30LQF033sKYUf0uQQgWstJACrf4zDGMW0AgEbLMAnn4h4jMB18E035cfzsfpHexy7uAYEdoF+D40XTefW9AMwZQE1IXC9gQRg9Xdr8k+mMYwAWWAjVGf1P27YZ5leMwI3aEwAqX7Ni2NjOp0soHrYtI1YxEZFBG7EuLqnAVb/qIr2ZZhjBHaF/R+gdZJgnuMYxHxNBG6qkQCs/pE17ctwxwjUYQGpfseLp8v8zZio7GmAzzEYocsBmcctArvB/CZomSR41K3LYl03AreUSACpft3oezBfGRaY64G/4oIBBG7FnHmnAVb/oQZsy5QeIEAW+BGqSoI5HvgpLhhE4DZFArD6hxu0LVN7gMAw+JDFAo944J+4YAGB22Gj/TQg1W8BeF9MkAU2tyXBw744J37YQeCORAL8g/1D7JgVK74gsDsciVngIV+cEj/sInAnzLH6D7ZrVqz5ggBZ4F5fnBE/3CDgw8Oz3UQeWf0XizdmlqzKA30AAAAASUVORK5CYII=;fontSize=16;imageBackground=#006699;imageBorder=#002538;sketch=0;container=0;" vertex="1" parent="na72bfkku3NZ-06XnOkD-16">
          <mxGeometry x="60.003643410852646" y="243.99963072639935" width="86.82170542635653" height="86.82170542635653" as="geometry" />
        </mxCell>
      </root>
    </mxGraphModel>
  </diagram>
</mxfile>
